<mxfile host="app.diagrams.net" modified="2024-06-25T00:13:20.413Z" agent="Mozilla/5.0 (X11; Linux x86_64) AppleWebKit/537.36 (KHTML, like Gecko) Chrome/110.0.0.0 Safari/537.36" etag="KHk-KcrAiR645y29K97k" version="24.6.2" type="device">
  <diagram name="PÃ¡gina-1" id="-KCNnWfIbwavZ5ioIq9P">
    <mxGraphModel dx="1114" dy="627" grid="1" gridSize="10" guides="1" tooltips="1" connect="1" arrows="1" fold="1" page="1" pageScale="1" pageWidth="827" pageHeight="1169" background="#333333" math="0" shadow="0">
      <root>
        <mxCell id="0" />
        <mxCell id="1" parent="0" />
        <mxCell id="tj5qxl_loNwEkaAiad3E-1" value="" style="rounded=0;whiteSpace=wrap;html=1;fillColor=#333333;" vertex="1" parent="1">
          <mxGeometry x="580" y="190" width="120" height="60" as="geometry" />
        </mxCell>
        <mxCell id="tj5qxl_loNwEkaAiad3E-2" value="&lt;font color=&quot;#ffffff&quot;&gt;Banco de Dados&lt;/font&gt;&lt;div&gt;&lt;font color=&quot;#ffffff&quot;&gt;(Postgres)&lt;/font&gt;&lt;/div&gt;" style="rounded=0;whiteSpace=wrap;html=1;fillColor=#333333;" vertex="1" parent="1">
          <mxGeometry x="410" y="60" width="120" height="60" as="geometry" />
        </mxCell>
        <mxCell id="tj5qxl_loNwEkaAiad3E-20" style="edgeStyle=orthogonalEdgeStyle;rounded=0;orthogonalLoop=1;jettySize=auto;html=1;entryX=1;entryY=0.5;entryDx=0;entryDy=0;exitX=0.5;exitY=0;exitDx=0;exitDy=0;strokeColor=#FFFFFF;" edge="1" parent="1" source="tj5qxl_loNwEkaAiad3E-1" target="tj5qxl_loNwEkaAiad3E-2">
          <mxGeometry relative="1" as="geometry">
            <mxPoint x="570" y="70" as="targetPoint" />
          </mxGeometry>
        </mxCell>
        <mxCell id="tj5qxl_loNwEkaAiad3E-3" value="&lt;font color=&quot;#ffffff&quot;&gt;DataViz&lt;/font&gt;&lt;div&gt;&lt;font color=&quot;#ffffff&quot;&gt;(Metabase)&lt;/font&gt;&lt;/div&gt;" style="text;html=1;align=center;verticalAlign=middle;whiteSpace=wrap;rounded=0;" vertex="1" parent="1">
          <mxGeometry x="610" y="205" width="60" height="30" as="geometry" />
        </mxCell>
        <mxCell id="tj5qxl_loNwEkaAiad3E-19" style="edgeStyle=orthogonalEdgeStyle;rounded=0;orthogonalLoop=1;jettySize=auto;html=1;entryX=0.5;entryY=1;entryDx=0;entryDy=0;strokeColor=#FFFFFF;" edge="1" parent="1" source="tj5qxl_loNwEkaAiad3E-8" target="tj5qxl_loNwEkaAiad3E-2">
          <mxGeometry relative="1" as="geometry" />
        </mxCell>
        <mxCell id="tj5qxl_loNwEkaAiad3E-8" value="&lt;font color=&quot;#ffffff&quot;&gt;Jupyter Notebook&lt;/font&gt;&lt;div&gt;&lt;font color=&quot;#ffffff&quot;&gt;Deploy&lt;/font&gt;&lt;/div&gt;" style="rounded=0;whiteSpace=wrap;html=1;fillColor=#333333;" vertex="1" parent="1">
          <mxGeometry x="230" y="190" width="120" height="60" as="geometry" />
        </mxCell>
        <mxCell id="tj5qxl_loNwEkaAiad3E-10" value="" style="endArrow=none;dashed=1;html=1;rounded=0;fillColor=#dae8fc;strokeColor=#FF0000;" edge="1" parent="1">
          <mxGeometry width="50" height="50" relative="1" as="geometry">
            <mxPoint x="60" y="160" as="sourcePoint" />
            <mxPoint x="810" y="160" as="targetPoint" />
          </mxGeometry>
        </mxCell>
        <mxCell id="tj5qxl_loNwEkaAiad3E-11" value="&lt;font color=&quot;#ffffff&quot;&gt;Cronjob&lt;/font&gt;&lt;div&gt;&lt;font color=&quot;#ffffff&quot;&gt;(PaperMill)&lt;/font&gt;&lt;/div&gt;" style="rounded=0;whiteSpace=wrap;html=1;fillColor=#333333;" vertex="1" parent="1">
          <mxGeometry x="230" y="60" width="120" height="60" as="geometry" />
        </mxCell>
        <mxCell id="tj5qxl_loNwEkaAiad3E-12" value="" style="endArrow=classic;html=1;rounded=0;entryX=0.5;entryY=0;entryDx=0;entryDy=0;strokeColor=#FFFFFF;" edge="1" parent="1" target="tj5qxl_loNwEkaAiad3E-8">
          <mxGeometry width="50" height="50" relative="1" as="geometry">
            <mxPoint x="289.5" y="179" as="sourcePoint" />
            <mxPoint x="289.5" y="179" as="targetPoint" />
            <Array as="points">
              <mxPoint x="289.5" y="120" />
            </Array>
          </mxGeometry>
        </mxCell>
        <mxCell id="tj5qxl_loNwEkaAiad3E-18" style="edgeStyle=orthogonalEdgeStyle;rounded=0;orthogonalLoop=1;jettySize=auto;html=1;entryX=0;entryY=0.5;entryDx=0;entryDy=0;exitX=0.5;exitY=1;exitDx=0;exitDy=0;strokeColor=#FFFFFF;" edge="1" parent="1" source="tj5qxl_loNwEkaAiad3E-14" target="tj5qxl_loNwEkaAiad3E-8">
          <mxGeometry relative="1" as="geometry" />
        </mxCell>
        <mxCell id="tj5qxl_loNwEkaAiad3E-14" value="&lt;font color=&quot;#ffffff&quot;&gt;Dataset Folder&lt;/font&gt;&lt;div&gt;&lt;font color=&quot;#ffffff&quot;&gt;(Amazon S3)&lt;/font&gt;&lt;/div&gt;" style="rounded=0;whiteSpace=wrap;html=1;fillColor=#333333;" vertex="1" parent="1">
          <mxGeometry x="60" y="60" width="120" height="60" as="geometry" />
        </mxCell>
        <mxCell id="tj5qxl_loNwEkaAiad3E-16" value="&lt;font size=&quot;1&quot; color=&quot;#ff0000&quot;&gt;&lt;b style=&quot;font-size: 17px;&quot;&gt;Cloud&lt;/b&gt;&lt;/font&gt;" style="text;html=1;align=center;verticalAlign=middle;whiteSpace=wrap;rounded=0;" vertex="1" parent="1">
          <mxGeometry x="740" y="90" width="110" height="60" as="geometry" />
        </mxCell>
        <mxCell id="tj5qxl_loNwEkaAiad3E-17" value="&lt;font size=&quot;1&quot; color=&quot;#ff0000&quot;&gt;&lt;b style=&quot;font-size: 17px;&quot;&gt;Local&lt;/b&gt;&lt;/font&gt;" style="text;html=1;align=center;verticalAlign=middle;whiteSpace=wrap;rounded=0;" vertex="1" parent="1">
          <mxGeometry x="740" y="180" width="110" height="60" as="geometry" />
        </mxCell>
        <mxCell id="tj5qxl_loNwEkaAiad3E-22" style="edgeStyle=orthogonalEdgeStyle;rounded=0;orthogonalLoop=1;jettySize=auto;html=1;exitX=0.5;exitY=0;exitDx=0;exitDy=0;entryX=1;entryY=0.25;entryDx=0;entryDy=0;strokeColor=#FFFFFF;" edge="1" parent="1" source="tj5qxl_loNwEkaAiad3E-21" target="tj5qxl_loNwEkaAiad3E-2">
          <mxGeometry relative="1" as="geometry">
            <mxPoint x="530" y="90" as="targetPoint" />
          </mxGeometry>
        </mxCell>
        <mxCell id="tj5qxl_loNwEkaAiad3E-21" value="&lt;font color=&quot;#ffffff&quot;&gt;DataViz&lt;/font&gt;&lt;div&gt;&lt;font color=&quot;#ffffff&quot;&gt;(PowerBI)&lt;/font&gt;&lt;/div&gt;" style="rounded=0;whiteSpace=wrap;html=1;fillColor=#333333;" vertex="1" parent="1">
          <mxGeometry x="580" y="270" width="120" height="60" as="geometry" />
        </mxCell>
      </root>
    </mxGraphModel>
  </diagram>
</mxfile>
